<svg width="84" height="80" viewBox="0 0 84 80" fill="none" xmlns="http://www.w3.org/2000/svg">
<path d="M41.4732 4.78309C41.5318 4.60301 41.6025 4.54724 41.6413 4.52077C41.7024 4.47914 41.8087 4.43768 41.9487 4.43768C42.0888 4.43768 42.1951 4.47914 42.2561 4.52077C42.295 4.54723 42.3657 4.603 42.4242 4.78308L49.4032 26.2499C50.4076 29.3395 53.287 31.4311 56.5357 31.4311H79.1152C79.3047 31.4311 79.3796 31.4812 79.4167 31.5099C79.4752 31.5551 79.5475 31.6434 79.5908 31.7767C79.6341 31.91 79.6274 32.0238 79.6067 32.0948C79.5935 32.1399 79.5623 32.2244 79.409 32.3357L61.1457 45.5973C58.5155 47.5071 57.415 50.8938 58.4199 53.9849L65.3968 75.4454C65.4553 75.6256 65.4309 75.7123 65.4151 75.7565C65.3901 75.8261 65.3286 75.9221 65.2153 76.0045C65.1019 76.0869 64.9916 76.1158 64.9177 76.118C64.8708 76.1194 64.7808 76.1159 64.6275 76.0046L46.3555 62.7367C43.7275 60.8285 40.17 60.8285 37.542 62.7367L19.27 76.0046C19.1167 76.1159 19.0267 76.1194 18.9798 76.118C18.9059 76.1158 18.7955 76.0869 18.6822 76.0045C18.5689 75.9221 18.5073 75.8261 18.4824 75.7565C18.4666 75.7123 18.4421 75.6256 18.5007 75.4454L25.4776 53.9849C26.4825 50.8938 25.3819 47.5071 22.7518 45.5973L4.48849 32.3357C4.33516 32.2244 4.30398 32.1399 4.29081 32.0948C4.27008 32.0238 4.26344 31.91 4.30673 31.7767C4.35001 31.6434 4.4223 31.5551 4.48077 31.5099C4.5179 31.4812 4.59279 31.4311 4.78228 31.4311H27.3618C30.6105 31.4311 33.4899 29.3395 34.4943 26.2499L41.4732 4.78309Z" fill="white" stroke="white" stroke-width="7"/>
</svg>
