<svg width="84" height="80" viewBox="0 0 84 80" fill="none" xmlns="http://www.w3.org/2000/svg">
<path d="M41.4771 4.78309C41.5357 4.60301 41.6064 4.54724 41.6453 4.52077C41.7063 4.47914 41.8126 4.43768 41.9527 4.43768C42.0927 4.43768 42.199 4.47914 42.26 4.52077C42.2989 4.54723 42.3696 4.603 42.4282 4.78308L49.4071 26.2499C50.4115 29.3395 53.2909 31.4311 56.5396 31.4311H79.1191C79.3086 31.4311 79.3835 31.4812 79.4206 31.5099C79.4791 31.5551 79.5514 31.6434 79.5947 31.7767C79.638 31.91 79.6313 32.0238 79.6106 32.0948C79.5974 32.1399 79.5662 32.2244 79.4129 32.3357L61.1496 45.5973C58.5195 47.5071 57.4189 50.8938 58.4238 53.9849L65.4007 75.4454C65.4593 75.6256 65.4348 75.7123 65.419 75.7565C65.3941 75.8261 65.3325 75.9221 65.2192 76.0045C65.1058 76.0869 64.9955 76.1158 64.9216 76.118C64.8747 76.1194 64.7847 76.1159 64.6314 76.0046L46.3594 62.7367C43.7314 60.8285 40.1739 60.8285 37.5459 62.7367L19.2739 76.0046C19.1206 76.1159 19.0306 76.1194 18.9837 76.118C18.9098 76.1158 18.7995 76.0869 18.6861 76.0045C18.5728 75.9221 18.5113 75.8261 18.4863 75.7565C18.4705 75.7123 18.446 75.6256 18.5046 75.4454L25.4815 53.9849C26.4864 50.8938 25.3859 47.5071 22.7557 45.5973L4.4924 32.3357C4.33907 32.2244 4.30788 32.1399 4.29471 32.0948C4.27398 32.0238 4.26735 31.91 4.31063 31.7767C4.35392 31.6434 4.42621 31.5551 4.48467 31.5099C4.52181 31.4812 4.59669 31.4311 4.78618 31.4311H27.3657C30.6144 31.4311 33.4938 29.3395 34.4982 26.2499L41.4771 4.78309Z" stroke="white" stroke-width="7"/>
</svg>
